<svg xmlns="http://www.w3.org/2000/svg" viewBox="0 0 370 100">
  <path
    d="m2.52319 1.481c.07051-.04584.13985-.0936.21175-.13714.17382-.10525.34885-.20849.52332-.31267a.223.223 0 0 0 .03638-.02418.13382.13382 0 0 1 .16664-.01366.10627.10627 0 0 1 .03981.16023.0712.0712 0 0 0 -.00889.054.11864.11864 0 0 1 -.03957.14543c-.07111.05572-.14493.108-.21772.16152-.02725.02-.05487.0396-.08232.05938l.00721.01009c.077-.04651.15368-.09365.23122-.13928.04408-.02593.0896-.0494.1345-.07393l.01572-.00779a.129.129 0 0 1 .16657.03071.11877.11877 0 0 1 -.04344.162c-.11259.08856-.23349.16673-.34445.25717-.28337.231-.56319.46627-.84431.7a.04571.04571 0 0 0 -.01669.02761c.03146-.0214.06322-.04234.09432-.06426a6.888 6.888 0 0 1 .76315-.49155 1.708 1.708 0 0 1 .25407-.106.12576.12576 0 0 1 .15821.05078.13612.13612 0 0 1 -.0251.16593c-.03636.03933-.08216.06981-.12244.10571-.012.01073-.02941.02791-.02767.03968a.17843.17843 0 0 1 -.09446.17132c-.18418.14192-.37061.28094-.556.42131-.01705.01291-.03275.02761-.04908.04148l.00545.00934c.04356-.01813.08842-.03369.13046-.05484.15407-.07753.30646-.15841.4611-.23478a.92889.92889 0 0 1 .16748-.063.10385.10385 0 0 1 .12688.05283.106.106 0 0 1 -.04127.13476c-.04029.03047-.08384.05663-.12595.0847l.00677.0124c.06232-.03049.12454-.06122.187-.09138.03158-.01524.063-.03128.09564-.04376a.10758.10758 0 0 1 .11392.18233c-.07115.05832-.14634.11187-.22139.16524-.10609.07544-.21368.14875-.32044.22323a.08439.08439 0 0 0 -.03258.0386c.0647-.02342.13006-.04517.19392-.0707.072-.02877.14224-.0618.214-.0911a.28411.28411 0 0 1 .07186-.01789.0874.0874 0 0 1 .09358.0435.09062.09062 0 0 1 -.01082.10284l-.02325.03207c.01634.00593.02975.01014.04263.01561a.0693.0693 0 0 1 .04518.073.065.065 0 0 1 -.05632.06889.69207.69207 0 0 0 -.24954.10148c-.23219.11428-.46285.23169-.69482.34645a1.31235 1.31235 0 0 1 -.13439.05356.12389.12389 0 0 1 -.15289-.04227c-.018-.023-.0328-.02082-.056-.01207-.11622.04389-.23235.08825-.35013.12762a.26071.26071 0 0 1 -.10368.00482.1082.1082 0 0 1 -.09719-.07737.113.113 0 0 1 .02939-.12126.43336.43336 0 0 0 .06275-.06884.73682.73682 0 0 1 -.08348.03129.52516.52516 0 0 1 -.13173.02389.113.113 0 0 1 -.09638-.1783l.01147-.02288c-.01768 0-.031-.00109-.04407.00019a.14331.14331 0 0 1 -.15078-.05749.04123.04123 0 0 0 -.03946-.005c-.07614.04622-.14878.09846-.22638.14191a1.20816 1.20816 0 0 1 -.20169.09153.12521.12521 0 0 1 -.14589-.05443.09926.09926 0 0 0 -.052-.03289.12266.12266 0 0 1 -.07767-.19724 2.19992 2.19992 0 0 1 .18229-.18905q.1752-.17542.35142-.34983a.06507.06507 0 0 0 .02031-.037.53773.53773 0 0 1 -.056.02489.55694.55694 0 0 1 -.11713.03228.11433.11433 0 0 1 -.12927-.14008c.0045-.02827-.00522-.0386-.02811-.04955a.12588.12588 0 0 1 -.07172-.16987.26451.26451 0 0 1 .10355-.13227c.04307-.03186.08495-.06533.12656-.09748a.1515.1515 0 0 1 .03-.2243c.09379-.09592.17793-.20194.27664-.29223.13575-.12418.2799-.23937.42287-.35542a3.78 3.78 0 0 1 .70683-.46357.763.763 0 0 1 .08013-.03543.06585.06585 0 0 1 .08147.02512.06318.06318 0 0 1 -.00743.08093.20419.20419 0 0 1 -.04266.03728q-.18786.14075-.37606.281c-.01089.00816-.02049.018-.03069.02713z"
    fill="#f17f7f" transform="matrix(32.59761633 0 0 32.59761633 -31.516313 -31.636132)"
    xmlns="http://www.w3.org/2000/svg" />
  <path
    d="m22.08 32.28c-1 2.68-1.48 5.32-1.36 7.76-6.92-.24-13.24-.24-19.72 0v-1.88c2.32-.08 3-.52 3-1.52v-18.04c0-1-.68-1.28-3-1.44v-2h18.92c.52 0 .6.12.68.72l.8 5.24h-2.36l-.52-.84c-1.36-2.08-1.76-2.92-4.24-2.92h-1.96c-.52 0-.84.36-.84.88v7.72h3.32c2 0 2.76-.48 3.12-2.24h1.72c-.2 2.48-.2 4.4 0 6.88h-1.72c-.36-1.68-1.04-2.44-3.12-2.44h-3.32v8.72c0 .52.32.84.84.84h.2c3.48 0 4.8-.32 5.92-2.64l1.28-2.8zm19 1.96c0 3.76-3.84 6.4-7.4 6.4-2.96 0-5-1.56-5.72-1.56-.36 0-.56.16-.56.88h-2.12l-.52-5.8h1.24c.76 0 1.08.2 1.4.92.84 2.04 3.12 3.64 5.32 3.64 1.52 0 2.48-.92 2.48-2.12 0-1.64-1.44-2.44-3.24-3.16-2.4-1-7.48-2.84-7.48-7.48 0-4.04 3.36-6.32 7.12-6.32 3 0 3.88 1.12 4.76 1.12.68 0 .92-.36.96-.8h2.12l.36 5.92h-1.08c-.72 0-1.36-.16-1.64-.96-.88-2.52-2.44-3.4-4.24-3.4-1.28 0-2.6.76-2.6 2.24 0 1.56 1.52 2.36 3.32 3 2.28.92 7.52 2.92 7.52 7.48zm14.92 4.72c-1.12.84-2.72 1.32-4.6 1.32-4.2 0-6.64-2.32-6.64-6.96v-11.16h-1.4c-.52 0-.68-.24-.68-.76v-.68c0-.52.16-.76.68-.76 3.44 0 4.8-2.44 5.12-5.44h3.44v5.44h3.32c.52 0 .68.24.68.76v.68c0 .52-.16.76-.68.76h-3.32v11.92c0 2.08.12 3.6 1.76 3.6.64 0 1.64-.32 2.32-.92zm11.6-19.32c4.48 0 10.44 2.68 10.44 10.16 0 7.52-5.96 10.6-10.48 10.6-4.48 0-10.44-3.08-10.44-10.28 0-7.8 5.96-10.48 10.48-10.48zm2.88 12c0-6.2-1.28-9.92-3.36-9.92-1.76 0-2.4 2.8-2.4 6.72 0 6.04 1.28 9.92 3.36 9.92 1.88 0 2.4-2.84 2.4-6.72zm25.08-12.08c1.88 0 3.48 1.28 3.48 3.28 0 2.2-1.96 3-3.04 3-1.76 0-2.72-.92-3.64-.92-2.52 0-2.72 2.76-2.92 4.08v7.48c0 1 1 1.32 2.72 1.48v2.04c-4.12-.08-8.32-.08-12.44 0v-2.04c1.44-.16 2.52-.48 2.52-1.48v-10.08c0-1.64-1.12-1.88-2.6-1.6v-2.04c4.88-1.08 7.08-3.44 8.36-3.44 1.16 0 1.6.76 1.44 2.08l-.6 4.36c1.48-4.56 3.68-6.2 6.72-6.2zm21.84 15.68c.76 0 .84.76.28 1.64-1.64 2.4-3.8 3.52-7.08 3.52-5.84 0-10.76-3.64-10.76-10.6 0-6.84 5.24-10.16 10.04-10.16 5.8 0 9.12 4.12 9.12 7.96 0 2.12-.88 3.52-3.12 3.52h-9.08c.16 3.04.52 7.24 4.68 7.24 2.24 0 3.48-.88 4.52-2.52.28-.48.4-.6.96-.6zm-5.04-6.64c0-4.28-.56-6.88-2.56-6.88-2.16 0-2.96 2.56-3 6.88z"
    fill="#303841" transform="matrix(2.11864407 0 0 2.11864407 117.881356 -7.762709)" />
</svg>
